<svg viewBox="0 0 80 90" fill="none" xmlns="http://www.w3.org/2000/svg">
  <g stroke="none">
    <polygon points="0,-20 17.320500000000003,-10 17.320500000000003,10 0,20 -17.320500000000003,10 -17.320500000000003,-10" fill="#2d2d2d" transform="translate(40, 28)" />
    <polygon points="0,-20 17.320500000000003,-10 17.320500000000003,10 0,20 -17.320500000000003,10 -17.320500000000003,-10" fill="#2d2d2d" transform="translate(21.429499999999997, 60.165034525)" />
    <g transform="translate(58.5705, 60.165034525)">
      <polygon points="0,0 -17.320500000000003,-10 0,-20 17.320500000000003,-10" fill="#dfc182" transform="translate(0, -1.5)" />
      <polygon points="0,0 -17.320500000000003,-10 -17.320500000000003,10 0,20" fill="#a38042" transform="translate(-1.2990375, 0.75)" />
      <polygon points="0,0 17.320500000000003,-10 17.320500000000003,10 0,20" fill="#826330" transform="translate(1.2990375, 0.75)" />
    </g>
  </g>
</svg>